<?xml version="1.0" encoding="UTF-8"?> <svg xmlns="http://www.w3.org/2000/svg" width="362" height="105"><path fill-rule="evenodd" fill="#CB3339" d="M359.163 55.839c-4.319 5.636-10.92 10.699-18.924 10.699-4.012 0-11.02-2.157-11.02-12.503s8.61-20.277 15.694-20.277c2.882 0 6.647 1.634 6.647 6.643 0 4.861-2.813 12.424-14.785 15.518.64 1.875 2.274 3.975 5.027 3.975 3.444 0 8.121-1.496 13.094-6.933 2.268-2.481 3.423-5.364 5.165-3.956 1.602 1.295 1.189 4.112-.898 6.834zM344.586 40.51c-1.957-1.751-6.095 4.023-7.611 10.009 4.893-1.645 9.722-8.12 7.611-10.009zm-15.746.092c-.638 0-1.214-.107-1.801-.107-4.651 0-11.257 4.243-14.564 18.394-.764 3.268-1.309 6.208-4.686 5.99-2.885-.186-3.519-3.347-2.578-8.504-3.178 4.425-6.921 7.612-10.719 7.612-3.785 0-5.825-3.001-6.299-7.035-4.029 6.311-9.119 9.343-13.208 9.343-5.249 0-6.649-3.44-6.656-6.983-6.112 5.279-14.24 10.493-22.362 10.493-9.095 0-14.309-5.76-14.309-16.401 0-22.108 23.516-39.794 33.943-39.794 6.538 0 9.206 4.356 9.206 8.237 0 4.922-4.66 12.373-8.72 12.564-2.688.126-3.756-1.977-3.756-3.92 0-3.358 5.667-5.907 5.667-8.386 0-.436-.539-1.179-1.951-1.179-8.828 0-26.425 14.848-26.425 31.724 0 6.429 2.22 10.295 8.214 10.295 9.077 0 21.362-10.821 25.089-16.418 6.668-10.015 14.574-12.25 18.298-12.25 4.008 0 5.176 1.725 5.176 3.436 0 3.457-4.078 3.335-7.247 3.752-8.283 1.089-15.479 15.269-13.078 17.206 2.95 2.381 10.545-7.279 12.097-12.632.759-2.619 2.377-3.268 3.608-3.268 2.477 0 3.521 1.633 3.521 3.851 0 3.615-2.215 10.395 1.263 10.395 3.269 0 10.493-8.743 12.86-17.621.782-2.936.545-4.901 2.397-5.228 1.684-.297 6.472-.095 4.102 7.99 2.99-4.452 7.714-8.8 12.891-8.8 2.19 0 4.25.837 4.25 3.485 0 1.897-1.289 3.759-4.223 3.759zm-142.234 63.445c-17.982 0-25.177-18.931-25.095-25.701.036-3.006 1.378-5.12 3.887-5.12 1.451 0 2.311 1.335 2.63 4.248 1.691 15.431 11.154 21.018 18.905 21.018 14.262 0 24.563-13.855 32.377-42.211-3.69 4.312-7.641 7.362-11.888 7.362-4.329 0-7.736-3.015-8.475-8.412-5.888 8.072-13.677 11.28-19.588 11.28-7.612 0-10.718-4.251-10.718-10.018 0-12.524 12.527-22.465 18.292-22.465 4.546 0 6.582 3.706 6.582 7.117 0 3.239-3.548 7.358-6.099 7.358-1.108 0-2.439-.774-2.439-2.321 0-1.546 2.92-4.459 1.996-5.303-1.33-1.216-10.775 6.356-10.775 14.416 0 3.772 2.237 4.574 4.527 4.574 8.722 0 18.061-10.925 20.485-18.489 1.552-4.845 2.969-8.012 5.885-8.012 2.288 0 4.469 2.178 1.744 7.732-2.725 5.554-5.277 14.46-.436 15.247 4.409.717 13.047-7.334 15.258-18.296.615-3.057 1.978-6.264 4.904-5.772 2.877.484 3.44 4.087 2.071 8.059-7.076 20.525-12.643 63.709-44.03 63.709zm-18.683-61.328c-4.163-.112-12.493 2.067-15.447 17.285-.348 1.794-1.343 5.99-4.686 5.99-2.861 0-3.504-3.286-2.604-8.354-4.283 4.869-10.3 8.899-17.437 8.899-4.014 0-11.021-2.158-11.021-12.504 0-10.345 8.61-20.277 15.693-20.277 2.884 0 6.649 1.634 6.649 6.643 0 4.861-2.814 12.424-14.786 15.518.64 1.875 2.273 3.975 5.027 3.975 2.776 0 6.353-.975 10.24-4.199 0 0 8.997-7.274 9.873-15.185.669-2.963.565-4.805 2.398-5.227 2.654-.611 6.591.673 3.882 8.743 3.012-4.437 7.408-8.495 13.09-8.495 2.191 0 4.536.777 4.251 3.485-.218 2.069-1.527 3.799-5.122 3.703zm-35.828-2.209c-1.957-1.751-6.094 4.023-7.611 10.01 4.893-1.646 9.722-8.12 7.611-10.01zm-20.757 44.324c.327 4.03.111 5.772-2.833 5.772-1.853 0-4.126-2.81-4.032-10.128.176-13.764 1.284-27.529 3.841-42.799C102.879 47.902 95.9 55.43 90.631 55.43c-5.357 0-9.296-7.429-9.427-17.553-2.572 8.624-5.086 17.164-7.353 25.192-1.15 4.072-1.852 6.861-5.34 6.861-2.289 0-3.924-1.525-3.924-3.92 0-4.367 10.586-19.308 14.601-42.38.872-5.01-.327-11.108 5.558-11.108 1.506 0 4.033.973 4.033 5.119 0 2.722-.981 5.662-1.199 11.543-.218 5.881-.109 19.167 3.705 19.167 3.706 0 14.161-16.883 19.073-30.058 2.07-5.553 3.05-8.602 6.321-8.602 3.705 0 3.915 3.174 3.051 6.316-7.847 28.533-9.231 58.487-8.392 68.827z"></path><path fill-rule="evenodd" fill="#0D5772" d="M53.78 37.717c-1.713-.084-4.44-1.048-7.536-1.048-7.562 0-12.337 10.517-12.337 33.406 0 7.565 1.122 10.973 1.122 14.788 0 1.549-.882 2.599-2.281 2.993-3.543.995-5.424-5.67-5.424-14.851 0-20.848 2.718-42.921 21.143-42.921 3.549 0 9.829.487 9.829 3.978 0 2.386-1.724 3.792-4.516 3.655zM14.842 25.494c-4.206 0-11.734-.28-11.734-5.255 0-1.275 1.231-2.876 3.057-2.876 3.709 0 4.249 2.102 9.784 2.102 4.539 0 8.524-2.529 8.524-8.96 0-2.821-.775-4.363-.775-6.527 0-1.549 1.512-3.208 3.321-3.208 2.657 0 3.875 1.802 3.875 6.192 0 5.531-.332 18.532-16.052 18.532z"></path><path fill-rule="evenodd" fill="#CB3339" d="M47.719 25.439c-5.645 0-12.84-2.102-12.84-11.063 0-4.867 3.405-14.38 7.65-14.38 1.993 0 3.53 1.328 3.53 3.204 0 2.655-2.076 4.097-3.21 5.535-1.47 1.863-2.398 3.94-2.398 6.193 0 2.651 2.19 4.538 6.869 4.538 4.673 0 5.951-1.719 8.954-1.719 1.993 0 3.18 1.267 3.18 3.156 0 1.889-.775 4.536-11.735 4.536zM11.446 81.386c-3.007 0-4.079-2.002-4.079-3.615 0-2.526 1.883-3.525 4.388-9.069 4.763-10.537 7.875-18.101 7.875-26.007 0-3.678-1.052-7.08-6.808-7.08-3.135 0-6.129 1.303-8.388 1.303-2.167 0-3.457-.847-3.457-3.021 0-1.696 1.882-4.698 11.513-4.698 5.127 0 13.118 2.242 13.118 12.389 0 6.995-4.987 22.661-9.244 33.739-.747 1.946-1.985 6.059-4.918 6.059z"></path></svg> 